<svg width="48" height="48" xmlns="http://www.w3.org/2000/svg">
    <g fill="none" fill-rule="evenodd">
        <circle fill="#ECFBF5" cx="24" cy="24" r="24"/>
        <path d="m9.823 27.114-.101.007a.738.738 0 0 0-.637.827c.526 3.948 2.574 7.464 5.766 9.9a.74.74 0 0 0 1.038-.136.734.734 0 0 0-.137-1.032c-2.88-2.198-4.726-5.368-5.2-8.926a.74.74 0 0 0-.83-.633zm28.444-.004a.74.74 0 0 0-.83.634c-.464 3.502-2.265 6.64-5.072 8.835a.733.733 0 0 0-.124 1.034.738.738 0 0 0 1.039.124c3.112-2.434 5.11-5.915 5.624-9.801a.737.737 0 0 0-.637-.826zM22.99 24.17c-1.907.695-2.892 2.819-2.194 4.736.698 1.917 2.817 2.911 4.725 2.217a3.647 3.647 0 0 0 1.835-1.48l6.206 3.282c.36.19.806.052.995-.309a.743.743 0 0 0-.311-.999l-6.359-3.361c.1-.608.053-1.25-.172-1.868-.698-1.917-2.817-2.912-4.725-2.218zm-.977 3.115a2.217 2.217 0 0 1 2.56-1.802 2.217 2.217 0 0 1 1.79 2.57 2.217 2.217 0 0 1-2.56 1.802 2.217 2.217 0 0 1-1.79-2.57zm2.522-12.547c-6.519 0-11.823 5.277-11.823 11.763 0 .407.332.737.74.737.41 0 .74-.33.74-.737 0-5.674 4.64-10.29 10.343-10.29.408 0 .74-.33.74-.737a.738.738 0 0 0-.74-.736zm8.474-.753a.743.743 0 0 0-1.035.148.734.734 0 0 0 .148 1.03 13.458 13.458 0 0 1 5.399 9.874.739.739 0 0 0 .788.685.737.737 0 0 0 .688-.785 14.928 14.928 0 0 0-5.988-10.952zm-16.834.04a.742.742 0 0 0-1.034-.16 14.927 14.927 0 0 0-6.14 10.895.737.737 0 0 0 .739.796.738.738 0 0 0 .736-.678 13.46 13.46 0 0 1 5.537-9.824c.33-.24.402-.7.162-1.029zM23.994 11a15 15 0 0 0-5.996 1.237.735.735 0 0 0-.384.969.74.74 0 0 0 .974.381 13.521 13.521 0 0 1 5.406-1.115c1.961 0 3.852.408 5.62 1.21a.743.743 0 0 0 .981-.364.735.735 0 0 0-.366-.975A14.976 14.976 0 0 0 23.994 11z" fill="#08C177" fill-rule="nonzero"/>
    </g>
</svg>
