<svg width="48" height="48" xmlns="http://www.w3.org/2000/svg">
    <g fill="none" fill-rule="evenodd">
        <circle fill="#ECFBF5" cx="24" cy="24" r="24"/>
        <path d="m38.177 27.114.101.007c.405.053.69.423.637.827-.526 3.948-2.574 7.464-5.766 9.9a.74.74 0 0 1-1.038-.136.734.734 0 0 1 .137-1.032c2.88-2.198 4.726-5.368 5.2-8.926a.74.74 0 0 1 .83-.633zM9.733 27.11a.74.74 0 0 1 .83.634c.464 3.502 2.265 6.64 5.072 8.835a.733.733 0 0 1 .124 1.034.738.738 0 0 1-1.039.124c-3.112-2.434-5.11-5.915-5.624-9.801a.737.737 0 0 1 .637-.826zm6.519-6.098 5.882 4.14a3.685 3.685 0 0 1 1.742-.695c2.025-.249 3.874 1.188 4.121 3.203.247 2.015-1.198 3.856-3.223 4.105-2.025.248-3.874-1.188-4.121-3.203a3.647 3.647 0 0 1 .486-2.307l-5.743-4.04a.734.734 0 0 1-.176-1.026.743.743 0 0 1 1.032-.177zM24.42 26c-1.224 0-2.22.991-2.22 2.209 0 1.217.996 2.208 2.22 2.208 1.224 0 2.22-.99 2.22-2.208A2.217 2.217 0 0 0 24.42 26zm.044-11.261c6.519 0 11.823 5.277 11.823 11.763a.738.738 0 0 1-.74.737.738.738 0 0 1-.74-.737c0-5.674-4.64-10.29-10.343-10.29a.738.738 0 0 1-.74-.737c0-.407.332-.736.74-.736zm-9.474-.753a.743.743 0 0 1 1.035.148.734.734 0 0 1-.148 1.03 13.458 13.458 0 0 0-5.399 9.874.739.739 0 0 1-.788.685.737.737 0 0 1-.688-.785 14.928 14.928 0 0 1 5.988-10.952zm16.834.04a.742.742 0 0 1 1.034-.16 14.927 14.927 0 0 1 6.14 10.895.737.737 0 0 1-.739.796.738.738 0 0 1-.736-.678 13.46 13.46 0 0 0-5.537-9.824.734.734 0 0 1-.162-1.029zM24.006 11a15 15 0 0 1 5.996 1.237.735.735 0 0 1 .384.969.74.74 0 0 1-.974.381 13.521 13.521 0 0 0-5.406-1.115 13.51 13.51 0 0 0-5.62 1.21.743.743 0 0 1-.981-.364.735.735 0 0 1 .366-.975A14.976 14.976 0 0 1 24.006 11z" fill="#08C177" fill-rule="nonzero"/>
    </g>
</svg>
