<svg width="48" height="48" xmlns="http://www.w3.org/2000/svg">
    <g fill="none" fill-rule="evenodd">
        <circle fill="#ECFBF5" cx="24" cy="24" r="24"/>
        <path d="m38.177 27.114.101.007c.405.053.69.423.637.827-.526 3.948-2.574 7.464-5.766 9.9a.74.74 0 0 1-1.038-.136.734.734 0 0 1 .137-1.032c2.88-2.198 4.726-5.368 5.2-8.926a.74.74 0 0 1 .83-.633zM9.733 27.11a.74.74 0 0 1 .83.634c.464 3.502 2.265 6.64 5.072 8.835a.733.733 0 0 1 .124 1.034.738.738 0 0 1-1.039.124c-3.112-2.434-5.11-5.915-5.624-9.801a.737.737 0 0 1 .637-.826zm21.633-6.797a.743.743 0 0 1 1.045.05c.275.3.253.766-.05 1.04l-5.207 4.71c.477.62.763 1.391.763 2.23 0 2.03-1.66 3.681-3.7 3.681s-3.699-1.65-3.699-3.68c0-2.031 1.66-3.682 3.7-3.682.659 0 1.277.174 1.814.476zm-7.148 5.821c-1.224 0-2.22.991-2.22 2.21 0 1.217.996 2.208 2.22 2.208 1.224 0 2.22-.991 2.22-2.209a2.217 2.217 0 0 0-2.22-2.209zm.329-11.395c.408 0 .74.329.74.736a.738.738 0 0 1-.74.736c-5.703 0-10.343 4.617-10.343 10.291a.738.738 0 0 1-.74.737.738.738 0 0 1-.74-.737c0-6.486 5.304-11.763 11.823-11.763zm-9.557-.753a.743.743 0 0 1 1.035.148.734.734 0 0 1-.148 1.03 13.458 13.458 0 0 0-5.399 9.874.739.739 0 0 1-.788.685.737.737 0 0 1-.688-.785 14.928 14.928 0 0 1 5.988-10.952zm16.834.04a.742.742 0 0 1 1.034-.16 14.927 14.927 0 0 1 6.14 10.895.737.737 0 0 1-.739.796.738.738 0 0 1-.736-.678 13.46 13.46 0 0 0-5.537-9.824.734.734 0 0 1-.162-1.029zM24.006 11a15 15 0 0 1 5.996 1.237.735.735 0 0 1 .384.969.74.74 0 0 1-.974.381 13.521 13.521 0 0 0-5.406-1.115 13.51 13.51 0 0 0-5.62 1.21.743.743 0 0 1-.981-.364.735.735 0 0 1 .366-.975A14.976 14.976 0 0 1 24.006 11z" fill="#08C177" fill-rule="nonzero"/>
    </g>
</svg>
