<svg width="20" height="21" viewBox="0 0 20 21" fill="none" xmlns="http://www.w3.org/2000/svg">
<path fill-rule="evenodd" clip-rule="evenodd" d="M18.7705 0.0792656C19.387 0.132271 19.8931 0.602881 19.9746 1.19789C20.0865 2.01471 19.804 2.99791 19.3174 3.48507L15.6546 7.14762L17.681 18.0424C17.708 18.1874 17.6639 18.3366 17.5624 18.4432L16.3182 19.7502C16.2309 19.8422 16.1099 19.893 15.9852 19.893C15.9646 19.893 15.9435 19.8915 15.9227 19.8887C15.7759 19.8685 15.6481 19.7794 15.5792 19.6488L11.2735 11.5287L7.73997 15.0619C7.74064 15.0668 7.7415 15.0715 7.74235 15.0763C7.74388 15.0848 7.7454 15.0932 7.7458 15.102L7.88918 18.3007C7.89623 18.4502 7.82975 18.5936 7.71117 18.6846L6.12991 19.9068C6.04841 19.9699 5.94945 20.0027 5.84895 20.0027C5.80851 20.0027 5.76807 19.9975 5.72854 19.9865C5.58944 19.9488 5.47608 19.848 5.42246 19.7147L4.11756 16.4673C4.11351 16.4573 4.11095 16.4472 4.10842 16.4372C4.10731 16.4328 4.10621 16.4284 4.10499 16.4241C4.05965 16.4192 4.01461 16.41 3.9708 16.3907L0.71053 14.9764C0.561932 14.9121 0.458066 14.7745 0.437538 14.6137C0.416704 14.4534 0.481965 14.2938 0.609115 14.1936L2.00839 13.0921C2.09877 13.0211 2.20968 12.9864 2.32642 12.9947L4.1819 13.1311L8.43701 8.87565L0.247578 4.64168C0.116138 4.57427 0.0254474 4.44743 0.00400032 4.30098C-0.0177532 4.15514 0.032188 4.00715 0.137892 3.9042L1.43177 2.64649C1.53563 2.54568 1.68147 2.50034 1.82302 2.52179L13.0389 4.2734L16.5722 0.740143C17.1099 0.202127 18.0891 0.0179881 18.7705 0.0792656ZM5.92984 15.5724L18.6673 2.83522C18.9176 2.58459 19.1406 1.88419 19.0637 1.32259C19.0405 1.15193 18.8805 1.0113 18.6918 0.994751C18.147 0.947874 17.4868 1.12527 17.222 1.38999L4.48492 14.1274C4.11541 14.4972 4.11541 15.0981 4.48492 15.4676L4.5897 15.5724C4.95951 15.9419 5.56003 15.9412 5.92984 15.5724ZM16.0924 18.6543L16.7343 17.9796L14.8665 7.93596L11.9537 10.8485L16.0924 18.6543ZM6.96052 18.1034L6.04872 18.8081L5.2279 16.7654C5.23327 16.7654 5.23855 16.7662 5.24384 16.767L5.24388 16.767C5.24915 16.7677 5.25442 16.7685 5.25977 16.7685C5.73773 16.7685 6.2157 16.5862 6.57969 16.2222L6.8634 15.9388L6.96052 18.1034ZM3.47476 14.0009L2.43672 13.9246L1.78258 14.4396L3.3185 15.106C3.25661 14.7335 3.31053 14.3483 3.47476 14.0009ZM1.23629 4.11837L1.9082 3.46546L12.2341 5.07828L9.11902 8.19363L1.23629 4.11837Z" fill="#08C177"/>
</svg>
