<svg width="20" height="19" viewBox="0 0 20 19" fill="none" xmlns="http://www.w3.org/2000/svg">
<path fill-rule="evenodd" clip-rule="evenodd" d="M18.3967 3.13196H16.7341L14.807 3.13227H14.632V2.15506C14.632 1.37203 13.9946 0.734619 13.2115 0.734619H7.18056C6.39753 0.734619 5.76042 1.37203 5.76042 2.15506V3.13196H3.13736H1.60527C0.720604 3.13196 0.000976562 3.85159 0.000976562 4.73626V17.0682C0.000976562 17.9526 0.720604 18.6722 1.60527 18.6722H3.13736H5.06476H14.807H16.7341H18.3967C19.2813 18.6722 20.001 17.9526 20.001 17.0682V4.73626C20.001 3.85159 19.2813 3.13196 18.3967 3.13196ZM18.3967 17.7621H16.7341H14.807H5.06476H3.13736H1.60527C1.2227 17.7621 0.911129 17.4508 0.911129 17.0682V9.59132C2.43108 10.6896 5.00651 11.5239 7.73788 11.7605V13.3539C7.73788 13.6051 7.94176 13.809 8.19296 13.809H9.49781V14.7771C9.49781 15.0283 9.70169 15.2321 9.95289 15.2321C10.2041 15.2321 10.408 15.0283 10.408 14.7771V13.809H11.5672C11.8184 13.809 12.0223 13.6051 12.0223 13.3539V11.7696C12.0251 11.7696 12.0277 11.7704 12.0304 11.7711C12.0331 11.7719 12.0359 11.7726 12.039 11.7726C12.0553 11.7726 12.0714 11.7717 12.0878 11.7699C15.02 11.4574 17.6325 10.6168 19.0908 9.55643V17.0682C19.0908 17.4508 18.7796 17.7621 18.3967 17.7621ZM3.13736 4.04211H1.60527C1.2227 4.04211 0.911129 4.35369 0.911129 4.73626V8.40266C2.07643 9.59344 4.83753 10.5813 7.73788 10.8461V9.31584C7.73788 9.06464 7.94176 8.86077 8.19296 8.86077H11.5672C11.8184 8.86077 12.0223 9.06464 12.0223 9.31584V10.8613C15.1905 10.5191 18.0208 9.52154 19.0714 8.37535C19.0744 8.37182 19.0783 8.3695 19.0821 8.36721L19.0846 8.36568C19.0868 8.36431 19.089 8.36286 19.0908 8.36109V4.73626C19.0908 4.35369 18.7796 4.04211 18.3967 4.04211H16.7341L14.807 4.04242L3.13736 4.04211ZM6.67058 2.15506C6.67058 1.87352 6.89933 1.64477 7.18056 1.64477H13.2115C13.4931 1.64477 13.7218 1.87352 13.7218 2.15506V3.13226L6.67058 3.13196V2.15506ZM11.1121 12.8988H8.64803V9.77092H11.1121V12.8988Z" fill="#08C177"/>
</svg>
