<svg xmlns="http://www.w3.org/2000/svg" width="48" height="48" viewBox="0 0 48 48">
    <g fill="none" fill-rule="evenodd">
        <g>
            <g>
                <g>
                    <g>
                        <g transform="translate(-342.000000, -129.000000) translate(0.000000, 65.000000) translate(150.000000, 53.000000) translate(143.000000, 0.000000) translate(49.000000, 11.000000)">
                            <circle cx="24" cy="24" r="24" fill="#ECFBF5"/>
                            <g fill="#08C177" fill-rule="nonzero">
                                <path d="M19.686 24.273H9.978c-.373 0-.676.303-.676.676v2.832l-7.72-6.391 7.72-6.388v2.831c0 .373.303.676.676.676h9.708v5.764zm.406-7.116h-9.438V14.14c0-.367-.215-.703-.54-.854-.33-.157-.727-.108-1.01.126L.338 20.666c-.214.181-.337.445-.337.724 0 .28.123.545.343.729l8.767 7.257c.171.14.385.212.6.212.136 0 .273-.03.4-.089.33-.155.544-.49.544-.857v-3.017h9.438c.52 0 .945-.424.945-.946v-6.576c0-.521-.424-.946-.945-.946zm.606-2.571v-2.831c0-.373-.302-.676-.676-.676h-9.708V5.315h9.708c.374 0 .676-.303.676-.676V1.81l7.72 6.387-7.72 6.39zm8.959-7.118L20.9.222c-.28-.238-.677-.29-1.01-.132-.33.155-.544.49-.544.856v3.017H9.908c-.52 0-.945.424-.945.946v6.576c0 .521.424.946.945.946h9.438v3.018c0 .366.215.702.54.853.13.062.27.093.408.093.216 0 .43-.075.6-.218l8.76-7.25c.22-.18.346-.447.346-.731 0-.285-.127-.553-.343-.728z" transform="translate(9.000000, 9.000000)"/>
                            </g>
                        </g>
                    </g>
                </g>
            </g>
        </g>
    </g>
</svg>
