<svg width="48" height="48" xmlns="http://www.w3.org/2000/svg">
    <g fill="none" fill-rule="evenodd">
        <circle fill="#ECFBF5" cx="24" cy="24" r="24"/>
        <path d="M9 9h30v29H9z"/>
        <path d="M23.5 37.626c-8.608 0-10.987-1.273-11.139-1.698 0-.254.088-.488.258-.916.368-.928.925-2.332.925-5.644 0-4.795 1.252-6.706 3.273-8.236.61-.461 1.115-.801 1.561-1.101.987-.663 1.7-1.142 2.185-2.123a.69.69 0 0 0 .068-.377h5.575c.556 1.195 1.92 2.149 3.124 2.99.305.214.597.417.853.611 2.022 1.53 3.274 3.442 3.274 8.236 0 3.312.556 4.716.924 5.644.17.427.258.662.26.895-.154.446-2.533 1.72-11.141 1.72m-4.787-23.698a24.197 24.197 0 0 1-.245-.256 30.522 30.522 0 0 0-.484-.5c-.275-.278-.658-.667-.819-.919.252-.009.703.063 1.25.404.41.254.753.228.967.163.534-.164.769-.683.996-1.184.355-.786.624-1.263 1.35-1.263.354 0 1.089.489 1.625.846.993.66 1.93 1.284 2.649.634 1.129-1.02 1.901-1.166 2.181-1.091.066.018.135.048.185.2.292.898 1.222 1.256 1.985 1.397a4.062 4.062 0 0 1-.848.771c-1.205.843-2.228 1.928-2.864 3.026H20.39c-.508-1.022-1.148-1.684-1.676-2.228m16.932 20.573c-.33-.83-.827-2.086-.827-5.134 0-4.637-1.07-7.254-3.818-9.334-.269-.204-.574-.418-.894-.642-.897-.627-1.988-1.39-2.502-2.155a.684.684 0 0 0 .05-.087c.5-1.008 1.482-2.089 2.626-2.89 1.6-1.12 1.786-2.284 1.801-2.413a.69.69 0 0 0-.171-.546.645.645 0 0 0-.521-.225c-.63.016-1.607-.17-1.728-.543-.183-.56-.583-.95-1.126-1.097-.902-.244-2.107.227-3.325 1.291-.253-.085-.759-.422-1.107-.654C23.31 9.545 22.49 9 21.728 9c-1.653 0-2.239 1.294-2.589 2.066a7.235 7.235 0 0 1-.157.334c-.974-.557-2.005-.68-2.662-.31-.376.212-.592.57-.592.983 0 .759.598 1.366 1.29 2.069.15.151.306.31.463.477l.259.27c.542.56 1.157 1.195 1.587 2.222.017.04.037.077.06.111a.785.785 0 0 0-.042.072c-.324.654-.79.968-1.721 1.593-.438.295-.984.662-1.624 1.147-2.747 2.078-3.818 4.695-3.818 9.334 0 3.048-.498 4.303-.827 5.134-.19.48-.355.896-.355 1.426C11 38.6 18.831 39 23.5 39c4.668 0 12.5-.4 12.5-3.072 0-.53-.164-.945-.355-1.426m-11.598-7.227a31.563 31.563 0 0 1-.446-.226.675.675 0 0 0-.14-.053 5.482 5.482 0 0 0-.072-.037c-1.093-.549-1.536-.804-1.536-1.64 0-.316 0-1.054 1.63-1.054 1.2 0 1.336.543 1.349.621a.683.683 0 0 0 .726.615.685.685 0 0 0 .63-.735c-.04-.566-.523-1.572-1.996-1.819V21.69a.684.684 0 0 0-.68-.686.684.684 0 0 0-.681.686v1.243c-2.09.254-2.34 1.72-2.34 2.385 0 1.721 1.218 2.331 2.292 2.87l.389.198a.673.673 0 0 0 .133.05l.136.07c1.26.631 1.817.954 1.817 1.97 0 .392 0 1.309-1.968 1.309-1.476 0-1.632-.704-1.646-.8a.68.68 0 0 0-.726-.617.684.684 0 0 0-.63.734c.047.66.65 1.866 2.543 2.035v.814c0 .38.305.687.68.687.377 0 .681-.308.681-.687v-.862c2.166-.338 2.427-1.896 2.427-2.612 0-1.912-1.308-2.568-2.572-3.202" fill="#08C177" fill-rule="nonzero"/>
    </g>
</svg>
