<svg xmlns="http://www.w3.org/2000/svg" width="30" height="30" viewBox="0 0 30 30">
    <g fill="none" fill-rule="evenodd">
        <g fill="#08C177" fill-rule="nonzero">
            <g>
                <g>
                    <g>
                        <g>
                            <path d="M2.73 28.658V3.238c0-1.046.85-1.896 1.896-1.896H15.82c1.046 0 1.896.85 1.896 1.896v25.42H2.73zM25.29 8.347c-.046-.017-.078-.06-.08-.11l-.035-.658c-.008-1.461-.584-2.681-1.766-3.734-.865-.758-1.795-1.145-2.073-1.25.005-.063.023-.175.081-.355.022-.064.04-.113.056-.148l.03.006c.05.01 5.143 1.078 5.853 5.889.023.158.029.267.028.34h-.033l-2.062.02zm1.594 1.327l.473-.005c.216 0 .723 0 1.067-.397.358-.412.328-1.004.26-1.477-.808-5.478-6.322-6.876-6.876-7.003-.151-.047-.295-.07-.435-.07-.863 0-1.138.822-1.23 1.096-.477 1.455.322 1.898.71 2.028.008.003.884.318 1.668 1.005.89.792 1.306 1.661 1.313 2.766l.035.688c.035.705.569 1.284 1.27 1.378.03.004.062.005.094.006l.258-.003c-.643 2.665-.43 7.487.498 9.677.78 1.84 1.165 3.554 1.175 5.242.003.315-.037.623-.119.915-.15.543-.438 1.011-.836 1.359-.553.489-1.294.76-2.082.762-.445-.001-.888-.09-1.281-.256-.3-.127-.573-.298-.812-.508-.61-.535-.958-1.363-.952-2.278-.002-2.79-.524-4.79-1.598-6.12-.16-.196-.302-.343-.426-.456V3.238C19.058 1.452 17.606 0 15.82 0H4.626C2.841 0 1.388 1.452 1.388 3.238v25.42H.671c-.37 0-.671.3-.671.671 0 .37.3.671.671.671h18.742c.37 0 .67-.3.67-.671 0-.37-.3-.671-.67-.671h-.355v-8.285c.455 1.046.68 2.437.682 4.222-.008 1.3.505 2.5 1.408 3.29.346.305.742.553 1.175.736.563.238 1.168.36 1.803.362 1.119-.003 2.174-.393 2.97-1.097.591-.517 1.021-1.21 1.243-2.007.115-.413.17-.846.167-1.284-.012-1.867-.43-3.75-1.281-5.756-.853-2.012-1.022-6.936-.341-9.165zm-12.262.847c0 .03-.01.075-.035.13H6.123c-.464 0-.578-.12-.577-.13V4.646c0-.069.06-.13.13-.13h8.815c.07 0 .131.061.131.13v5.875zm-.131-7.346H5.675c-.81 0-1.47.66-1.47 1.47v5.876c0 .68.502 1.472 1.918 1.472h8.815c.206 0 .398-.094.525-.252.327-.381.501-.803.501-1.22V4.646c0-.811-.661-1.471-1.473-1.471z" transform="translate(-743.000000, -334.000000) translate(0.000000, 65.000000) translate(168.999950, 178.000000) translate(574.000050, 36.000000) translate(0.000000, 55.000000)"/>
                        </g>
                    </g>
                </g>
            </g>
        </g>
    </g>
</svg>
