<svg xmlns="http://www.w3.org/2000/svg" width="48" height="48" viewBox="0 0 48 48">
    <g fill="none" fill-rule="evenodd">
        <g>
            <g>
                <g>
                    <g>
                        <g transform="translate(-485.000000, -129.000000) translate(0.000000, 65.000000) translate(150.000000, 53.000000) translate(286.000000, 0.000000) translate(49.000000, 11.000000)">
                            <circle cx="24" cy="24" r="24" fill="#ECFBF5"/>
                            <g fill="#08C177" fill-rule="nonzero">
                                <path d="M2.07 27.17h4.276c.37 0 .67-.298.67-.667V7.226c0-.37-.3-.668-.67-.668H2.07c-.37 0-.67.299-.67.668v19.277c0 .369.3.668.67.668zm7.382-13.962c-.37 0-.67.299-.67.668v12.627c0 .369.3.668.67.668h4.276c.37 0 .67-.3.67-.668V13.876c0-.37-.3-.668-.67-.668H9.452zm7.382 5.061c-.37 0-.67.3-.67.668v7.566c0 .369.3.668.67.668h4.276c.37 0 .67-.3.67-.668v-7.566c0-.368-.3-.668-.67-.668h-4.276zm11.658 3.228c.37 0 .67.3.67.668v4.338c0 .369-.3.668-.67.668h-4.276c-.37 0-.67-.3-.67-.668v-4.338c0-.369.3-.668.67-.668zM5.676 7.894v17.94H2.74V7.895h2.935zm7.381 6.65v11.29h-2.934v-11.29h2.934zm7.382 5.061v6.23h-2.935v-6.23h2.935zm7.382 3.228h-2.935v3.002h2.935v-3.002zm1.509 5.831H.67c-.37 0-.67.299-.67.668 0 .37.3.668.67.668h28.66c.37 0 .67-.299.67-.668 0-.37-.3-.668-.67-.668m-2.557-9.76h-1.652c-.37 0-.67.3-.67.669 0 .369.3.668.67.668h3.408c.046 0 .092-.005.136-.014l.007-.002c.042-.01.083-.022.122-.04.012-.005.024-.013.037-.019.027-.014.055-.028.08-.046l.04-.032c.022-.018.044-.037.065-.058l.013-.012c.004-.004.004-.01.008-.014.051-.06.092-.128.12-.204l.009-.028c.02-.064.033-.13.033-.2v-3.729c0-.369-.3-.668-.67-.668-.37 0-.67.3-.67.668v2.236L8.882 1.17c-.276-.245-.7-.221-.947.054-.246.275-.223.697.053.943l18.784 16.739z" transform="translate(9.000000, 9.000000)"/>
                            </g>
                        </g>
                    </g>
                </g>
            </g>
        </g>
    </g>
</svg>
