<svg width="48" height="48" xmlns="http://www.w3.org/2000/svg">
    <g fill="none" fill-rule="evenodd">
        <circle fill="#ECFBF5" cx="24" cy="24" r="24"/>
        <path d="M25.644 14.43v15.432l6.92-6.935a1.426 1.426 0 0 1 2.019 0 1.434 1.434 0 0 1 0 2.023l-9.356 9.375a1.442 1.442 0 0 1-.468.311c-.007.004-.014.005-.022.008a1.413 1.413 0 0 1-.52.101c-.184 0-.36-.037-.521-.101-.008-.003-.015-.004-.022-.008a1.442 1.442 0 0 1-.468-.31L13.85 24.95a1.427 1.427 0 0 1-.417-1.012 1.426 1.426 0 0 1 2.437-1.01l6.92 6.934V14.43c0-.79.639-1.43 1.426-1.43.788 0 1.428.64 1.428 1.43z" fill="#08C177" fill-rule="nonzero"/>
    </g>
</svg>
