<svg xmlns="http://www.w3.org/2000/svg" width="48" height="48" viewBox="0 0 48 48">
    <g fill="none" fill-rule="evenodd">
        <g>
            <g>
                <g>
                    <g>
                        <g transform="translate(-1057.000000, -129.000000) translate(0.000000, 65.000000) translate(150.000000, 53.000000) translate(858.000000, 0.000000) translate(49.000000, 11.000000)">
                            <circle cx="24" cy="24" r="24" fill="#ECFBF5"/>
                            <g fill="#08C177" fill-rule="nonzero">
                                <path d="M28.616 15.462c-.248 7.351-6.309 13.163-13.612 13.162-.154 0-.31-.002-.465-.008C7.03 28.363 1.13 22.048 1.384 14.54 1.632 7.187 7.692 1.377 14.995 1.377c.155 0 .31.002.466.007 3.639.123 7.011 1.654 9.496 4.313 2.484 2.659 3.784 6.126 3.659 9.765M25.962 4.757C23.227 1.83 19.514.144 15.508.01 7.24-.28.288 6.227.008 14.492c-.278 8.268 6.22 15.22 14.484 15.5.171.005.342.008.513.008 8.04 0 14.713-6.399 14.986-14.491.138-4.006-1.293-7.824-4.029-10.752M17.969 9.38c-.397-.464-1.089-.933-2.272-1.07.007-.04.012-.08.012-.12V6.31c0-.38-.308-.688-.688-.688-.38 0-.688.308-.688.688V8.19c0 .035.006.069.01.102-2.982.245-3.32 2.221-3.32 3.103 0 1.521.721 2.36 1.618 2.963l-6.827 6.38C4.665 18.907 4.1 16.811 4.17 14.63 4.37 8.784 9.189 4.164 14.992 4.164c.125 0 .251.002.376.006 2.179.075 4.23.782 5.979 2.053L17.969 9.38zm-5.57 2.015c0-.48 0-1.752 2.581-1.752.956 0 1.635.237 1.978.681l-3.28 3.065c-.845-.499-1.28-.987-1.28-1.994zM23.09 6.159c-.005-.197-.094-.382-.245-.509-2.112-1.773-4.681-2.76-7.43-2.855-6.742-.233-12.39 5.058-12.621 11.79-.09 2.753.721 5.384 2.346 7.61.116.159.295.26.49.279l.066.003c.173 0 .341-.066.47-.186L22.873 6.68c.144-.134.224-.324.218-.52zm-.693 16.755c-2.118 1.98-4.879 3.018-7.762 2.916-2.178-.075-4.23-.781-5.978-2.052l2.895-2.706c.514.496 1.373.95 2.78 1.022V23.5c0 .38.308.688.688.688.38 0 .688-.308.688-.688v-1.45c2.953-.35 3.434-2.243 3.434-3.422 0-1.585-.692-2.504-1.588-3.165l6.635-6.2c1.153 1.834 1.719 3.928 1.645 6.101-.1 2.89-1.32 5.571-3.437 7.55m-4.63-4.286c0 .905-.318 2.109-3.061 2.109-.967 0-1.697-.21-2.146-.607l3.965-3.704c.806.53 1.241 1.114 1.241 2.202m6.606-11.101c-.2-.021-.391.048-.535.182l-7.654 7.153c-.172.047-.327.16-.42.329-.019.034-.032.07-.045.105L7.13 23.321c-.144.135-.223.324-.218.52.005.198.095.383.245.51 2.113 1.773 4.682 2.76 7.43 2.854.143.005.286.008.428.008 3.1 0 6.04-1.16 8.322-3.294 2.385-2.23 3.76-5.251 3.872-8.507.094-2.745-.717-5.374-2.346-7.606-.117-.159-.296-.26-.491-.28" transform="translate(9.000000, 9.000000)"/>
                            </g>
                        </g>
                    </g>
                </g>
            </g>
        </g>
    </g>
</svg>
