<svg xmlns="http://www.w3.org/2000/svg" width="30" height="30" viewBox="0 0 30 30">
    <g fill="none" fill-rule="evenodd">
        <g fill-rule="nonzero">
            <g>
                <g>
                    <g>
                        <g>
                            <path fill="#08C177" d="M23.89 10.568c.529 1.242.83 2.612.83 4.055 0 5.531-4.325 10.03-9.641 10.03-1.604 0-3.113-.415-4.445-1.138l2.4-2.345c.245.432.505.856.798 1.262l.436.6v-3.067l1.621-1.582v4.653l.436-.608c.97-1.35 1.68-2.849 2.108-4.46l.084-.317h-1.88l1.723-1.682h.45l.021-.225c.009-.084.012-.17.019-.253l1.644-1.607c.006.175.02.345.02.52 0 .434-.015.87-.05 1.294l-.022.271h2.556l.028-.22c.048-.384.073-.754.073-1.126 0-.54-.05-1.069-.145-1.578l-.038-.203h-1.355zm-2.064 7.043h-2.39l-.044.192c-.286 1.268-.73 2.49-1.31 3.627l-.405.791.741-.454c1.426-.879 2.582-2.229 3.257-3.803l.15-.353zM15.172 5.17c1.618 0 3.35.507 4.693 1.237l-2.478 2.13c-.272-.507-.564-1.005-.9-1.478l-.06-.085-.44-.066v2.997l-1.633 1.595V6.912l-.444.063-.06.085c-.945 1.33-1.64 2.818-2.064 4.418l-.086.32h2.35l-1.739 1.698h-.905l-.022.228c-.025.24-.04.484-.052.729L9.716 16.03c-.019-.308-.032-.624-.032-.952 0-.452.02-.89.054-1.302l.025-.278H7.26l-.038.205c-.099.508-.146 1.045-.146 1.593 0 .4.022.772.07 1.138l.028.224h1.9L6.277 19.39c-.535-1.253-.838-2.635-.838-4.093 0-5.584 4.366-10.126 9.733-10.126zm-3.27 2.585l-.772.478c-1.232.763-2.24 1.814-2.911 3.046l-.195.354h2.357l.047-.186c.249-1.004.611-1.983 1.078-2.907l.396-.785z" transform="translate(-456.000000, -334.000000) translate(0.000000, 65.000000) translate(168.999950, 178.000000) translate(287.000050, 36.000000) translate(0.000000, 55.000000)"/>
                            <path d="M25.962 4.757C23.227 1.83 19.514.144 15.508.01 7.24-.28.288 6.227.008 14.492c-.278 8.268 6.22 15.22 14.484 15.5.171.005.342.008.513.008 8.04 0 14.713-6.399 14.986-14.491.138-4.006-1.293-7.824-4.029-10.752" transform="translate(-456.000000, -334.000000) translate(0.000000, 65.000000) translate(168.999950, 178.000000) translate(287.000050, 36.000000) translate(0.000000, 55.000000)"/>
                            <path fill="#08C177" d="M15 0c8.284 0 15 6.716 15 15 0 8.284-6.716 15-15 15-8.284 0-15-6.716-15-15C0 6.716 6.716 0 15 0zm0 1.5C7.544 1.5 1.5 7.544 1.5 15S7.544 28.5 15 28.5 28.5 22.456 28.5 15 22.456 1.5 15 1.5z" transform="translate(-456.000000, -334.000000) translate(0.000000, 65.000000) translate(168.999950, 178.000000) translate(287.000050, 36.000000) translate(0.000000, 55.000000)"/>
                            <g fill="#08C177">
                                <path d="M12.369.007c2.692.093 5.208 1.06 7.277 2.796.148.124.235.306.24.498.004.155-.044.304-.136.425l-.077.085L3.309 19.102c-.125.118-.29.182-.46.182l-.063-.003c-.192-.018-.368-.117-.482-.273C.714 16.828-.08 14.25.007 11.554.229 5.062 5.596-.061 12.065 0l.304.006zM12.03 1.5l-.279.002c-5.518.103-10.055 4.522-10.246 10.1-.065 1.99.416 3.899 1.402 5.591l.089.148 14.938-13.96-.14-.098c-1.521-1.03-3.258-1.63-5.091-1.757l-.387-.02-.286-.006z" transform="translate(-456.000000, -334.000000) translate(0.000000, 65.000000) translate(168.999950, 178.000000) translate(287.000050, 36.000000) translate(0.000000, 55.000000) translate(3.000000, 3.000000)"/>
                                <path d="M16.482 4.904c2.693.093 5.209 1.06 7.278 2.797.147.124.235.305.24.498.004.154-.045.303-.137.425l-.077.085-16.363 15.29c-.126.118-.29.183-.46.183l-.064-.004c-.192-.018-.367-.117-.481-.273-1.591-2.18-2.385-4.757-2.298-7.454C4.343 9.96 9.71 4.836 16.178 4.898l.304.006zm-.337 1.493l-.279.002c-5.518.103-10.055 4.522-10.247 10.1-.064 1.99.417 3.9 1.402 5.592l.089.147L22.049 8.277l-.14-.097c-1.522-1.03-3.258-1.63-5.092-1.757l-.368-.019-.304-.007z" transform="translate(-456.000000, -334.000000) translate(0.000000, 65.000000) translate(168.999950, 178.000000) translate(287.000050, 36.000000) translate(0.000000, 55.000000) translate(3.000000, 3.000000) translate(14.056836, 14.539410) scale(-1, -1) translate(-14.056836, -14.539410)"/>
                            </g>
                        </g>
                    </g>
                </g>
            </g>
        </g>
    </g>
</svg>
