<svg xmlns="http://www.w3.org/2000/svg" width="48" height="48" viewBox="0 0 48 48">
    <defs>
        <filter id="o6ct5leioa" color-interpolation-filters="auto">
            <feColorMatrix in="SourceGraphic" values="0 0 0 0 0.031373 0 0 0 0 0.756863 0 0 0 0 0.466667 0 0 0 1.000000 0"/>
        </filter>
    </defs>
    <g fill="none" fill-rule="evenodd">
        <g>
            <g>
                <g>
                    <g>
                        <g transform="translate(-628.000000, -129.000000) translate(0.000000, 65.000000) translate(150.000000, 53.000000) translate(429.000000, 0.000000) translate(49.000000, 11.000000)">
                            <circle cx="24" cy="24" r="24" fill="#ECFBF5"/>
                            <g transform="translate(9.000000, 9.000000)">
                                <rect width="30" height="30" rx=".78"/>
                                <g filter="url(#o6ct5leioa)">
                                    <g fill="#979797" fill-rule="nonzero">
                                        <path d="M27 6.464c1.598 0 2.904 1.223 2.995 2.765l.005.173v1.47c0 1.564-1.249 2.843-2.824 2.932L27 13.81v11.753c0 1.623-1.343 2.938-3 2.938H6c-1.657 0-3-1.315-3-2.938V13.809c-1.598 0-2.904-1.223-2.995-2.765L0 10.87V9.402C0 7.837 1.249 6.558 2.824 6.47L3 6.464h24zM24 27.03c.77 0 1.403-.567 1.49-1.298l.01-.171V13.809H18v-1.47l9 .001.175-.01c.7-.08 1.252-.63 1.318-1.32l.007-.139V9.402l-.01-.171c-.087-.73-.72-1.298-1.49-1.298H3l-.175.01c-.7.08-1.252.63-1.318 1.32l-.007.14v1.468l.01.171c.081.685.644 1.227 1.347 1.292L3 12.34h10.5v1.469h-9v11.753c0 .753.58 1.374 1.325 1.459l.175.01h18z" transform="translate(0.000000, 1.000000)"/>
                                        <path d="M19.5 6.464V28.5H12V6.464h7.5zM18 7.933h-4.5v19.098H18V7.933z" transform="translate(0.000000, 1.000000)"/>
                                        <g>
                                            <path d="M9 7.971h6.571c3.363 0 5.084-4.251 2.298-7.056-3.155-2.313-5.95-.176-8.32 5.664L9 7.97zm8.042-5.782c1.559 1.803.481 4.313-1.47 4.313H11.2l.074-.173c1.923-4.419 3.752-5.667 5.61-4.312l.158.172z" transform="translate(0.000000, 1.000000) translate(6.000000, -0.000000)"/>
                                            <path d="M0 7.971h6.571c3.363 0 5.084-4.251 2.298-7.056C5.714-1.398 2.919.74.549 6.58L0 7.97zM8.042 2.19c1.559 1.803.481 4.313-1.47 4.313H2.2l.074-.173C4.197 1.91 6.026.662 7.884 2.017l.158.172z" transform="translate(0.000000, 1.000000) translate(6.000000, -0.000000) translate(5.130459, 3.985720) scale(-1, 1) translate(-5.130459, -3.985720)"/>
                                        </g>
                                    </g>
                                </g>
                            </g>
                        </g>
                    </g>
                </g>
            </g>
        </g>
    </g>
</svg>
