<svg xmlns="http://www.w3.org/2000/svg" width="30" height="30" viewBox="0 0 30 30">
    <g fill="none" fill-rule="evenodd">
        <g fill="#08C177" fill-rule="nonzero">
            <g>
                <g>
                    <g>
                        <g>
                            <path d="M14.542 10.69c.03-.045.16-.133.363-.133.22 0 .352.103.368.123-.016.04-.148.143-.368.143-.203 0-.332-.087-.363-.133zM15 18.725l-10.665-5.67 9.109-1.653c.285.438.824.731 1.46.731.944 0 1.683-.633 1.683-1.443s-.74-1.443-1.682-1.443c-.688 0-1.263.34-1.526.836l-10.91 1.98-.383-.203L15 5.388l12.914 6.472L15 18.725zm8.221 2.602c-.853.724-4.24 3.363-8.221 3.363-3.968 0-7.364-2.64-8.22-3.364V15.84l7.91 4.206c.097.051.204.077.31.077.107 0 .213-.026.31-.077l7.911-4.206v5.488zM2.441 23.28c-.392 0-.709-.316-.709-.705 0-.39.317-.706.708-.706.391 0 .709.317.709.706 0 .389-.318.705-.709.705zm27.197-12.021L15.296 4.07c-.186-.093-.406-.093-.591 0L.362 11.258c-.22.11-.359.332-.362.577-.003.244.131.47.348.585l1.435.763v7.494C.99 20.95.417 21.693.417 22.574c0 1.11.908 2.015 2.023 2.015 1.116 0 2.024-.904 2.024-2.015 0-.88-.574-1.623-1.366-1.897v-6.795l2.366 1.258v6.483c0 .18.075.353.207.477.17.16 4.224 3.9 9.329 3.9 5.106 0 9.16-3.74 9.33-3.9.131-.124.206-.296.206-.477V15.14l5.116-2.72c.217-.114.351-.34.348-.585-.003-.245-.142-.467-.362-.577z" transform="translate(-169.000000, -334.000000) translate(0.000000, 65.000000) translate(168.999950, 178.000000) translate(0.000000, 36.000000) translate(0.000000, 55.000000)"/>
                        </g>
                    </g>
                </g>
            </g>
        </g>
    </g>
</svg>
