<svg width="53" height="52" viewBox="0 0 53 52" fill="none" xmlns="http://www.w3.org/2000/svg">
<circle cx="26.5" cy="26" r="26" fill="#EFFEF8"/>
<path fill-rule="evenodd" clip-rule="evenodd" d="M12.2568 14.721C12.0886 14.1954 12.3803 13.637 12.9083 13.4737C14.9281 12.8491 16.9412 13.3118 18.399 14.3436C19.0572 14.8094 19.6248 15.4107 20.0258 16.1009C20.1383 16.2881 20.2389 16.4872 20.3274 16.6955C20.3478 16.7433 20.3641 16.7919 20.3766 16.8408C20.3828 16.8573 20.3888 16.8739 20.3948 16.8905C21.2889 16.1409 22.4549 15.6303 23.684 15.442C25.5054 15.1629 27.5648 15.574 29.2547 17.0595C29.6708 17.4253 29.7096 18.0536 29.3413 18.4627C28.9731 18.8719 28.3372 18.9071 27.921 18.5413C27.2946 17.9906 26.5993 17.6494 25.8912 17.4793C26.1979 17.8827 26.1555 18.4608 25.7774 18.8143C25.3739 19.1915 24.7411 19.1702 24.3639 18.7667C23.7297 18.0882 23.188 17.9871 22.7508 18.0375C22.4475 18.0725 22.1373 18.1886 21.8321 18.3557C22.5057 18.4901 23.1921 18.7452 23.8156 19.1119C25.2967 19.9828 26.5684 21.5626 26.6465 23.9238C26.6647 24.4758 26.232 24.9381 25.6801 24.9563C25.1281 24.9746 24.6658 24.5419 24.6476 23.9899C24.6086 22.8118 24.1454 21.9555 23.504 21.357C23.5464 21.586 23.5797 21.8297 23.6045 22.0891C23.657 22.6389 23.2538 23.1272 22.704 23.1796C22.1543 23.2321 21.666 22.829 21.6135 22.2792C21.5176 21.2744 21.2915 20.8691 21.1279 20.6809C20.9978 20.5313 20.8456 20.4381 20.5717 20.3176C20.2469 21.4132 19.8765 23.3143 19.8966 25.4351C19.9209 27.9938 20.5111 30.7118 22.2575 32.7289C22.2916 32.7683 22.3221 32.8097 22.3491 32.8525H24.6547C24.6371 32.6484 24.6356 32.4544 24.6408 32.2717C24.649 28.9589 27.3371 26.2759 30.6518 26.2759C33.9687 26.2759 36.6582 28.9625 36.6628 32.2784C36.666 32.4837 36.6584 32.6742 36.6412 32.8525H38.6907C39.243 32.8525 39.6907 33.3003 39.6907 33.8525C39.6907 34.4048 39.243 34.8525 38.6907 34.8525H13.2129C12.6606 34.8525 12.2129 34.4048 12.2129 33.8525C12.2129 33.3003 12.6606 32.8525 13.2129 32.8525H19.8612C18.3845 30.5446 17.9192 27.8308 17.8967 25.454C17.8758 23.2467 18.2353 21.2303 18.6058 19.9173C18.4447 19.9094 18.2841 19.9185 18.1264 19.955C17.8087 20.0285 17.3728 20.243 17.0199 21.0957C16.8087 21.6061 16.2239 21.8486 15.7135 21.6374C15.2032 21.4262 14.9607 20.8414 15.1719 20.331C15.2522 20.1369 15.3392 19.9563 15.4323 19.7885C14.8776 20.0427 14.3969 20.4294 14.0704 20.9285C13.768 21.3907 13.1483 21.5203 12.6861 21.218C12.2239 20.9156 12.0943 20.2959 12.3967 19.8337C13.6779 17.8749 16.2675 17.0225 18.5324 17.6349C18.4837 17.4809 18.4195 17.3283 18.3403 17.1787C18.0952 16.7462 17.8274 16.5783 17.6117 16.5223C17.3338 16.4502 16.8628 16.4905 16.1795 16.9459C15.7199 17.2522 15.0991 17.128 14.7928 16.6685C14.4865 16.2089 14.6107 15.588 15.0703 15.2817C15.1101 15.2552 15.1502 15.2291 15.1904 15.2037C14.6518 15.152 14.0855 15.2013 13.5176 15.3769C12.9895 15.5402 12.4251 15.2465 12.2568 14.721ZM34.6241 32.8525C34.6528 32.6976 34.6666 32.5203 34.6629 32.304L34.6628 32.2955V32.2869C34.6628 30.0717 32.867 28.2759 30.6518 28.2759C28.4366 28.2759 26.6408 30.0717 26.6408 32.2869V32.302L26.6403 32.3171C26.6344 32.5126 26.6395 32.6855 26.67 32.8525H34.6241Z" fill="#08C177"/>
</svg>
