<svg xmlns="http://www.w3.org/2000/svg" width="30" height="30" viewBox="0 0 30 30">
    <g fill="none" fill-rule="evenodd">
        <g fill="#08C177" fill-rule="nonzero">
            <g>
                <g>
                    <g>
                        <g>
                            <path d="M20.989 11.75l.013-10.374 5.618-.004.003 7.808-5.634 2.57zm-2.816 8.555l3.868.56-2.799 2.72c-.28.27-.406.661-.34 1.044l.66 3.838-3.458-1.811c-.173-.091-.363-.137-.552-.137-.19 0-.378.046-.551.136l-3.459 1.812.661-3.837c.066-.384-.061-.774-.34-1.046l-2.8-2.719 3.869-.56c.385-.056.719-.297.89-.646l1.73-3.492 1.73 3.492c.172.349.505.59.891.646zM4.377 1.385l5.718-.003-.013 10.404L4.38 9.192l-.002-7.807zM15.502 14.25l-4.051-1.842c.002-.024.007-.047.007-.071l.014-10.957 8.153-.005-.014 11.002-4.109 1.873zM27.996.686c0-.182-.072-.357-.201-.485C27.666.072 27.49 0 27.308 0L3.688.013C3.308.013 3 .321 3 .7l.003 8.934c0 .269.157.512.402.624l11.05 5.027-1.822 3.678-4.154.601c-.448.066-.814.373-.955.803-.14.43-.026.894.3 1.21l3.005 2.92-.71 4.123c-.076.446.104.888.472 1.154.367.266.845.3 1.247.09l3.714-1.947 3.715 1.947c.175.092.364.137.552.137.244 0 .488-.077.695-.227.368-.266.547-.708.47-1.154l-.709-4.123 3.006-2.92c.325-.315.44-.779.3-1.21-.14-.43-.507-.737-.956-.803l-4.153-.601-1.841-3.716 10.967-5.002c.245-.112.402-.356.402-.624L27.996.686z" transform="translate(-1030.000000, -279.000000) translate(0.000000, 65.000000) translate(168.999950, 178.000000) translate(861.000050, 36.000000) translate(0.000000, 0.000000)"/>
                        </g>
                    </g>
                </g>
            </g>
        </g>
    </g>
</svg>
