<svg xmlns="http://www.w3.org/2000/svg" width="30" height="30" viewBox="0 0 30 30">
    <g fill="none" fill-rule="evenodd">
        <g fill="#08C177" fill-rule="nonzero">
            <g>
                <g>
                    <g>
                        <g>
                            <path d="M16.734 0c1.72 0 3.4.741 4.608 2.033.983 1.052 2.12 2.954 1.955 6.042l.001 4.75h1.731c.535 0 .971.442.971.984v15.207c0 .543-.436.984-.971.984H4.971C4.435 30 4 29.559 4 29.016V13.81c0-.542.435-.984.971-.984h1.8V8.04c-.164-3.052.972-4.953 1.955-6.005C9.934.742 11.615 0 13.336 0zm7.957 14.152H5.31v14.522H24.69V14.152zm-8.656-9.139h-2c-.663 0-1.277.266-1.728.75-.617.66-.908 1.66-.842 2.894l.001 4.168h7.138V8.693c.066-1.27-.225-2.271-.842-2.93-.451-.484-1.065-.75-1.727-.75zm.699-3.687h-3.398c-1.364 0-2.698.591-3.66 1.62C8.87 3.81 7.94 5.388 8.08 8.004v4.822h2.078V8.693c-.109-1.993.592-3.193 1.198-3.842.702-.75 1.653-1.164 2.679-1.164h2c1.025 0 1.976.413 2.677 1.163.606.649 1.307 1.849 1.2 3.879v4.096h2.078V8.04c.14-2.654-.792-4.232-1.598-5.094-.962-1.03-2.295-1.62-3.658-1.62zM14.462 23.31v2.287c0 .366.293.663.654.663.362 0 .655-.297.655-.663v-2.278c1.455-.299 2.554-1.606 2.554-3.169 0-1.782-1.43-3.233-3.19-3.233-1.758 0-3.189 1.45-3.189 3.233 0 1.549 1.08 2.846 2.516 3.16m.674-5.067c1.037 0 1.88.856 1.88 1.907 0 1.052-.843 1.907-1.88 1.907-1.038 0-1.881-.855-1.881-1.907 0-1.051.843-1.907 1.88-1.907" transform="translate(-169.000000, -390.000000) translate(0.000000, 65.000000) translate(168.999950, 178.000000) translate(0.000000, 36.000000) translate(0.000050, 111.000000)"/>
                        </g>
                    </g>
                </g>
            </g>
        </g>
    </g>
</svg>
