<svg xmlns="http://www.w3.org/2000/svg" width="48" height="48" viewBox="0 0 48 48">
    <g fill="none" fill-rule="evenodd">
        <g>
            <g>
                <g>
                    <g>
                        <g transform="translate(-199.000000, -129.000000) translate(0.000000, 65.000000) translate(150.000000, 53.000000) translate(0.000000, 2.000000) translate(49.000000, 9.000000)">
                            <circle cx="24" cy="24" r="24" fill="#ECFBF5"/>
                            <g fill="#08C177" fill-rule="nonzero">
                                <path d="M29.492 3.703c-.42-.514-1.039-.809-1.698-.809h-3.857c-.225-1.428-.488-2.364-.499-2.4C23.353.2 23.088 0 22.788 0H7.587c-.01 0-.019.003-.028.003-.315-.029-.618.17-.712.49-.01.036-.26.926-.481 2.295H2.205c-.659 0-1.277.295-1.697.808-.421.516-.592 1.19-.47 1.85C.597 8.44 2.762 15.605 10.8 17.426c.05.011.1.017.148.017.06 0 .119-.015.176-.03.48.267.997.508 1.565.71v3.074c0 .052.007.1.017.149l-.972-.001h-.001c-.533 0-1.024.25-1.3.655l-1.05 1.192c-.078.09-.12.196-.145.305H7.973c-.375 0-.68.308-.68.69v5.123c0 .38.305.689.68.689h13.871c.375 0 .679-.308.679-.689v-5.124c0-.38-.304-.689-.679-.689h-.852c-.026-.105-.073-.207-.149-.294l-1.046-1.195c-.275-.406-.767-.656-1.3-.657h-.919c.01-.05.018-.1.018-.153v-3.074c.482-.172.922-.376 1.34-.595.039.007.076.02.116.02.048 0 .098-.005.148-.017 8.038-1.821 10.203-8.986 10.761-11.982.123-.659-.048-1.332-.47-1.848zm-.865 1.593c-.532 2.86-2.114 7.526-6.8 9.863 2.515-3.177 2.624-7.704 2.29-10.887h3.677c.254 0 .491.113.653.31.162.199.227.459.18.714zM16.72 16.966c-.286.088-.482.355-.482.659v3.574c0 .052.008.102.018.151l-2.226-.002c.01-.048.017-.098.017-.15v-3.574c0-.303-.196-.57-.482-.659-3.803-1.168-5.878-4.182-6.17-8.96-.176-2.871.371-5.557.628-6.627h14.24c.104.433.254 1.13.385 1.99-.022.069-.037.14-.037.215 0 .146.045.281.122.393.15 1.174.247 2.579.157 4.03-.291 4.777-2.367 7.792-6.17 8.96zm4.445 7.91v3.746H8.652v-3.746h12.513zm-9.432-2.152l6.762.006c.107 0 .173.045.184.06.02.035.044.067.07.097l.535.611h-8.349l.543-.617c.027-.03.05-.061.071-.096.01-.013.054-.045.125-.057l.059-.004zM1.373 5.19c-.047-.255.018-.516.18-.714.164-.2.395-.31.652-.31H6.18c-.35 3.202-.266 7.822 2.31 11.035C3.559 12.92 1.917 8.113 1.373 5.19zm16.073 4.068c-.236.234-.344.571-.288.9l.352 2.076-1.838-.98c-.146-.078-.307-.117-.466-.117-.16 0-.32.039-.467.117l-1.837.98.351-2.079c.054-.328-.053-.664-.288-.897l-1.487-1.47 2.054-.304c.326-.048.607-.255.755-.556l.919-1.89.918 1.89c.146.3.428.508.755.556l2.054.303-1.487 1.471zm1.082.853l1.87-1.849c.275-.272.372-.671.253-1.042-.12-.37-.429-.635-.808-.69l-2.584-.382-1.156-2.376c-.17-.35-.514-.566-.897-.566-.385 0-.73.217-.899.567l-1.155 2.375-2.584.381c-.38.056-.69.321-.808.692-.119.37-.021.77.254 1.042l1.87 1.848-.443 2.61c-.065.385.088.766.398.996.176.13.382.195.589.195.159 0 .319-.039.467-.118l2.31-1.232 2.311 1.232c.34.182.744.152 1.054-.077.312-.229.464-.61.4-.994l-.442-2.612z" transform="translate(9.000000, 9.000000)"/>
                            </g>
                        </g>
                    </g>
                </g>
            </g>
        </g>
    </g>
</svg>
