<svg width="30" height="30" xmlns="http://www.w3.org/2000/svg">
    <g fill="none" fill-rule="evenodd">
        <path d="m9.218 19.615-.054.052c-.873.888-1.883 1.359-2.924 1.359-2.173 0-3.75-1.628-3.75-3.875 0-2.242 1.577-3.872 3.75-3.872 1.04 0 2.051.472 2.924 1.363l.054.054 1.397-1.688-.037-.046c-1.162-1.371-2.556-2.039-4.27-2.039-1.72 0-3.293.578-4.427 1.621C.651 13.674 0 15.266 0 17.151c0 1.885.65 3.482 1.881 4.611 1.134 1.048 2.706 1.623 4.426 1.623 1.715 0 3.109-.668 4.271-2.04l.037-.042-1.397-1.688zM12 23.385h2.308v-12H12zM23.859 20.629c-.637.394-1.23.592-1.763.592-.772 0-1.12-.414-1.12-1.335v-6.281h2.432v-2.23h-2.432V7.693l-2.341 1.272v2.412h-2.02v2.229h2.02v6.682c0 1.82 1.062 3.064 2.647 3.097 1.077.021 1.726-.305 2.12-.543l.023-.017.575-2.283-.141.088zM25.846 23.385h2.308v-12h-2.308z" fill="#003B70"/>
        <path d="M29.886 8.918c-2.255-3.08-6-4.918-9.81-4.918-3.81 0-7.555 1.838-9.807 4.918l-.115.159h2.84l.03-.033c1.934-1.924 4.457-2.941 7.052-2.941 2.595 0 5.117 1.017 7.054 2.941l.031.033H30l-.114-.159z" fill="#D9261C"/>
    </g>
</svg>
