<svg width="30" height="30" xmlns="http://www.w3.org/2000/svg">
    <g fill-rule="nonzero" fill="none">
        <path d="M11.6 12.26c.894.352 1.775.729 2.644 1.132a58.382 58.382 0 0 0-8.003 3.985 48.482 48.482 0 0 0-2.63-1.285 55.484 55.484 0 0 1 7.99-3.832zm-3.3-1.166a45.946 45.946 0 0 0-8.272 3.55c.837.3 1.666.624 2.485.97a47.092 47.092 0 0 1 8.028-3.758 47.22 47.22 0 0 0-2.24-.762z" fill="#2267AD"/>
        <path d="M17.609 12.148a48.715 48.715 0 0 0-7.022-2.75c-.849.244-1.691.511-2.526.801a48.596 48.596 0 0 1 7.228 2.782c.767-.294 1.54-.572 2.32-.833zm3.689-1.102a52.779 52.779 0 0 0-7.153-2.523c-.777.16-1.55.34-2.317.537a48.614 48.614 0 0 1 7.063 2.676c.797-.247 1.6-.477 2.407-.69zm5.92 1.99A62.36 62.36 0 0 0 11.06 21.27a57.391 57.391 0 0 1 3.597 2.4A65.502 65.502 0 0 1 29.982 14.6a52.038 52.038 0 0 0-2.764-1.564zm-3.99-1.895a56.603 56.603 0 0 0-16.82 7.562c1.15.567 2.281 1.172 3.39 1.815a58.748 58.748 0 0 1 16.508-7.953 53.255 53.255 0 0 0-3.078-1.424z" fill="#CD2E29"/>
    </g>
</svg>
