<svg width="30" height="10" xmlns="http://www.w3.org/2000/svg">
    <g fill-rule="nonzero" fill="none">
        <path d="M19.63 7.231c-1.236.843-2.695 1.724-4.262 2.651l-.061.033c-.02.013-.027.039-.014.065.014.02.04.026.068.013l.054-.026c1.33-.666 2.864-1.463 4.397-2.279.007-.006.014-.006.028-.013a1.79 1.79 0 0 1-.21-.444zm8.088-6.3C25.777-1.134 13.285.72 7.97 1.837l-.122.026c-.027.006-.04.026-.04.052.006.026.027.04.054.04l.122-.027c4.397-.75 13.551-1.795 15.526.085.604.575.454 1.313-.238 2.18.373.236.645.602.767 1.059C26.754 3.509 28.58 1.85 27.718.93z" fill="#D22F2F"/>
        <g fill="#004879">
            <path d="M20.416 6.69c.027.724.502 1.318 1.127 1.318 1.208 0 1.717-1.423 1.683-2.377-.028-.724-.516-1.319-1.134-1.319-1.045 0-1.71 1.417-1.676 2.377zm-.638-.04c-.047-1.24.964-2.5 2.43-2.5.977 0 1.622.626 1.655 1.586.048 1.306-.895 2.5-2.429 2.5-.977 0-1.622-.626-1.656-1.586zM5.915 6.324a1.12 1.12 0 0 1-.203.052 6.63 6.63 0 0 1-.455.078c-.15.026-.258.052-.319.098a.206.206 0 0 0-.101.15c-.014.066.006.118.067.157.061.04.156.059.292.059a.99.99 0 0 0 .306-.046.806.806 0 0 0 .25-.124.414.414 0 0 0 .11-.15c.006-.046.026-.137.053-.274zm1.276-.764c-.007.11-.027.215-.054.385L6.92 7.107c-.02.105.02.183.122.242l-.007.045H5.8l-.013-.293a2.43 2.43 0 0 1-.59.241 2.35 2.35 0 0 1-.591.072c-.4 0-.624-.04-.78-.17-.163-.137-.238-.228-.231-.418a.606.606 0 0 1 .149-.346c.088-.098.204-.163.326-.222.129-.058.278-.098.495-.13.217-.033.523-.066.93-.098.21-.02.346-.066.407-.085.088-.033.115-.065.129-.13.02-.118-.014-.19-.183-.223-.441-.085-1.276.053-1.704.157l.231-.607c.563-.079 1.1-.13 1.656-.13.882-.007 1.167.234 1.16.548zm3.57 1.834.427-2.324h1.18l-.427 2.324h-1.18zm.495-2.86c.034-.189.346-.346.699-.346.352 0 .604.157.57.346-.034.19-.353.347-.7.347-.352 0-.61-.157-.57-.347zm5.306 1.796a1.12 1.12 0 0 1-.203.052c-.082.02-.238.046-.462.079-.15.026-.258.052-.319.098a.254.254 0 0 0-.102.15c-.013.065.014.117.068.157.061.039.156.058.299.058a.99.99 0 0 0 .305-.045.806.806 0 0 0 .251-.124.334.334 0 0 0 .102-.15c.014-.046.034-.138.061-.275zm1.269-.764a2.842 2.842 0 0 1-.061.385l-.21 1.163c-.02.104.02.182.122.241l-.007.04H16.44l-.007-.294c-.183.104-.4.189-.59.241a2.083 2.083 0 0 1-.59.072c-.4 0-.625-.04-.78-.17-.164-.137-.238-.228-.232-.418a.606.606 0 0 1 .15-.346c.088-.098.203-.163.325-.222.13-.058.279-.098.496-.137.217-.032.522-.065.93-.098.21-.02.339-.065.4-.085.088-.032.122-.065.135-.137.02-.117-.02-.19-.183-.222-.448-.085-1.275.052-1.703.157l.23-.607c.57-.079 1.093-.13 1.656-.13.876.012 1.16.254 1.154.567zm-14.4.993a4.566 4.566 0 0 1-.976.104c-.563 0-1.011-.268-.99-.764.02-.326.42-1.025 1.451-1.025.326 0 .577.052.916.242l.15-.804a2.86 2.86 0 0 0-1.168-.189c-1.35.013-2.646.6-2.802 1.802-.163 1.221 1.384 1.528 2.07 1.522.393 0 .807-.02 1.194-.053l.156-.835zm9.589-1.502.081-.47 1.235-.261-.129.73h.604l-.115.471h-.584l-.352 1.867s-1.188-.006-1.195 0l.353-1.86h-.448l.089-.47h.461v-.007zm6.012 2.337h-1.208l.604-3.238 1.174.032-.57 3.206zM9.2 5.618a.703.703 0 0 0-.421.138.589.589 0 0 0-.23.398c-.035.202-.014.346.067.437.082.092.204.137.367.137.108 0 .217-.02.298-.058a.59.59 0 0 0 .23-.19.695.695 0 0 0 .13-.307c.034-.182.007-.32-.082-.411a.451.451 0 0 0-.36-.144zm-2.151 2.58.576-3.115h1.039l-.082.398c.088-.117.23-.215.434-.294a1.83 1.83 0 0 1 .672-.137c.272 0 .435.013.638.118.204.104.34.248.42.444.075.19.096.398.055.633a1.352 1.352 0 0 1-.583.908c-.32.222-.604.28-1.005.28-.142 0-.264-.012-.366-.039a.885.885 0 0 1-.238-.091 1.31 1.31 0 0 1-.196-.17l-.19 1.065H7.049zm21.429-2.292c-.007-.19-.102-.314-.306-.314-.481 0-.997.914-1.085 1.28.787 0 1.404-.457 1.39-.966zm.101 1.43.095.058c-.237.464-.719.836-1.282.836-.461 0-.841-.294-.862-.849-.034-.992.93-1.92 1.724-1.92.339 0 .658.144.672.497.027.79-1.127 1.032-1.887 1.051a.762.762 0 0 0-.027.294c.014.327.217.607.645.607.366-.013.732-.294.922-.574z"/>
            <path d="M23.843 5.88a2.37 2.37 0 0 1 .272-.027c.088 0 .17.014.17.098 0 .053-.09.405-.11.484l-.183.783c-.074.32-.156.653-.224.92h.475l.265-1.233c.814-.81 1.126-1.078 1.316-1.078.089 0 .143.046.15.144.007.144-.088.47-.122.562l-.272.9c-.06.203-.108.386-.102.516.007.196.136.288.32.288.345 0 .596-.346.814-.686l-.061-.11c-.089.136-.292.437-.455.437-.054 0-.102-.033-.102-.118-.007-.104.04-.261.075-.366l.298-1.057c.082-.294.122-.477.116-.581-.007-.196-.13-.288-.312-.288-.313 0-.727.216-1.602 1.189h-.013l.108-.47c.061-.262.115-.53.177-.712a8.713 8.713 0 0 1-1.005.274l.007.13z"/>
        </g>
        <path d="M29 5.132c0-.29.232-.5.504-.5a.49.49 0 0 1 .496.5c0 .29-.232.5-.496.5a.492.492 0 0 1-.504-.5zm.504.42c.224 0 .4-.178.4-.42a.4.4 0 1 0-.8 0 .392.392 0 0 0 .4.42zm-.112-.13h-.088V4.85h.216c.136 0 .2.049.2.161 0 .105-.064.146-.152.162l.16.25h-.096l-.152-.25h-.096v.25h.008zm.104-.322c.072 0 .136-.008.136-.097 0-.072-.064-.08-.128-.08h-.12V5.1h.112z" fill="#004879"/>
    </g>
</svg>
