<svg width="30" height="30" xmlns="http://www.w3.org/2000/svg">
    <g fill="none" fill-rule="evenodd">
        <path fill="#016FD0" d="M0 0h30v30H0V12.645z"/>
        <path d="M6 21v-4.5h4.95l.532.666.548-.666H30v4.19s-.47.306-1.013.31h-9.95l-.6-.71V21h-1.962v-1.21s-.268.168-.847.168h-.668V21h-2.972l-.53-.68-.538.68H6zM0 12.505 1.124 10H3.07l.638 1.403V10h2.417l.38 1.014L6.872 10h10.851v.51s.57-.51 1.508-.51l3.52.012.628 1.385V10h2.023l.557.795V10H28v4.5h-2.041l-.534-.798v.798h-2.972l-.299-.71h-.799l-.294.71h-2.015c-.807 0-1.323-.5-1.323-.5v.5h-3.039l-.603-.71v.71h-11.3l-.299-.71h-.796l-.297.71H0v-1.995z" fill="#FFF"/>
        <path d="M1.45 10.5 0 14h.945l.267-.7h1.556l.267.7H4l-1.45-3.5h-1.1zm.538.815.474 1.224h-.95l.476-1.224z" fill="#016FD0" fill-rule="nonzero"/>
        <path fill="#016FD0" d="M4 14v-3.5l1.433.005.833 2.257.813-2.262H8.5V14h-.9v-2.579L6.646 14h-.79L4.9 11.421V14zM9 14v-3.5h3v.783H9.929v.599h2.023v.736H9.929v.622H12V14z"/>
        <path d="M12.5 10.5V14h.911v-1.243h.384L14.887 14H16l-1.199-1.29c.492-.04 1-.445 1-1.075 0-.736-.602-1.135-1.274-1.135H12.5zm.911.783h1.041c.25 0 .432.188.432.368 0 .233-.236.369-.418.369H13.41v-.737z" fill="#016FD0" fill-rule="nonzero"/>
        <path fill="#016FD0" d="M17 14h-1v-3.5h1zM19.064 14h-.178c-.863 0-1.386-.735-1.386-1.736 0-1.025.518-1.764 1.606-1.764H20v.829h-.926c-.442 0-.755.373-.755.944 0 .678.358.963.872.963h.213l-.34.764z"/>
        <path d="M20.95 10.5 19.5 14h.945l.267-.7h1.556l.267.7h.965l-1.45-3.5h-1.1zm.538.815.474 1.224h-.95l.476-1.224z" fill="#016FD0" fill-rule="nonzero"/>
        <path fill="#016FD0" d="M24 14v-3.5h1.143l1.458 2.199V10.5h.899V14h-1.106L24.9 11.743V14zM6.5 20.5V17h3v.783H7.429v.599h2.023v.736H7.429v.622H9.5v.76zM20.5 20.5V17h3v.783h-2.071v.599h2.013v.736h-2.013v.622H23.5v.76zM9.534 20.5l1.441-1.728L9.5 17h1.142l.879 1.095.881-1.095H13.5l-1.456 1.75 1.444 1.75h-1.143l-.852-1.078-.833 1.078z"/>
        <path d="M13.5 17v3.5h.845v-1.105h.866c.733 0 1.289-.414 1.289-1.218 0-.666-.436-1.177-1.182-1.177H13.5zm.845.792h.912c.237 0 .406.154.406.402a.39.39 0 0 1-.408.403h-.91v-.805zM17 17v3.5h.911v-1.243h.384l1.092 1.243H20.5l-1.199-1.29c.492-.04 1-.445 1-1.075 0-.736-.602-1.135-1.274-1.135H17zm.911.783h1.041c.25 0 .432.188.432.368 0 .233-.236.369-.418.369H17.91v-.737z" fill="#016FD0" fill-rule="nonzero"/>
        <path d="M23.607 20.5v-.76h1.685c.25 0 .358-.14.358-.293 0-.148-.108-.296-.358-.296h-.761c-.662 0-1.031-.42-1.031-1.049 0-.56.338-1.102 1.321-1.102h1.64l-.354.787h-1.419c-.27 0-.354.148-.354.29a.3.3 0 0 0 .31.305h.798c.738 0 1.058.435 1.058 1.004 0 .612-.357 1.114-1.098 1.114h-1.795zM27.107 20.5v-.76h1.685c.25 0 .358-.14.358-.293 0-.148-.108-.296-.358-.296h-.761c-.662 0-1.031-.42-1.031-1.049 0-.56.338-1.102 1.321-1.102h1.64l-.354.787h-1.419c-.27 0-.354.148-.354.29a.3.3 0 0 0 .31.305h.798c.738 0 1.058.435 1.058 1.004 0 .612-.357 1.114-1.098 1.114h-1.795z" fill="#016FD0"/>
    </g>
</svg>
