<svg width="30" height="30" xmlns="http://www.w3.org/2000/svg">
    <g fill-rule="nonzero" fill="none">
        <path fill="#B31E30" d="M0 30h30V0H0z"/>
        <path d="M10.931 9.674v1.499h.339c.427 0 .62-.21.62-.8v-.092h.497v2.327h-.497v-.1c0-.583-.193-.806-.62-.806h-.339v1.677h1.419c.646 0 .88-.433.957-1.26h.516v1.794h-4.66v-.534h.394c.245 0 .375-.069.375-.502V10.08c0-.312-.14-.406-.469-.406H9.32c-.339 0-.5.08-.619.437l-1.286 3.802h-.978l-.744-2.478h-.014l-.826 2.478h-.99L2.527 9.929c-.058-.196-.158-.255-.429-.255H2v-.532h2.058v.532H3.76c-.157 0-.22.094-.22.189 0 .07.026.16.063.26l.892 2.662h.014l.85-2.504-.12-.34c-.072-.213-.215-.267-.422-.267h-.168v-.532h2.126v.532h-.376c-.145 0-.2.064-.2.158 0 .074.034.175.058.244l.78 2.662h.013l.906-2.6c.028-.086.053-.157.053-.247 0-.113-.053-.217-.303-.217h-.343v-.532h6.46v1.631h-.53c-.108-.69-.168-1.1-1.113-1.1H10.93zm7.741 4.239v-1.795h-.544c-.072.82-.219 1.26-.956 1.26H16.1v-3.373c0-.265.108-.331.42-.331h.4v-.532h-2.603v.532h.411c.285 0 .38.094.38.312v3.073c0 .251-.135.32-.336.32h-.455v.534h4.355zm4.833 0v-1.795h-.546c-.072.82-.224 1.26-.952 1.26h-1.074v-3.373c0-.265.108-.331.42-.331h.397v-.532h-2.604v.532h.413c.287 0 .383.094.383.312v3.073c0 .251-.138.32-.336.32h-.46v.534h4.36zm3.585-4.412C27.046 9.456 26.61 9 25.764 9c-.889 0-1.787.456-1.787 1.435 0 .887.697 1.291 1.5 1.466.266.057.425.087.668.14.602.13 1.003.314 1.003.737 0 .322-.336.667-1.001.667-.929 0-1.48-.525-1.594-1.327h-.546v1.795h.483l.156-.428c.115.102.568.57 1.429.57 1.097 0 1.925-.494 1.925-1.47 0-.946-.772-1.353-1.715-1.545-.168-.042-.322-.068-.495-.108-.586-.128-.962-.275-.962-.7 0-.369.386-.622.964-.622.87 0 1.207.56 1.387 1.163h.53V9.142h-.383l-.236.36zM5.475 21.351v-.537H5.12c-.329 0-.45-.099-.45-.368v-1.3h.291c.442 0 .633.193.633.699v.158h.495v-2.196h-.495v.095c0 .37-.133.711-.59.711H4.67V17.11h.926c1.043 0 1.153.531 1.223 1.097h.509v-1.63H2.87v.533h.472c.212 0 .331.096.331.269v3.083c0 .201-.107.352-.36.352H2.87v.537h2.605zm19.722-4.918c-1.545 0-2.567 1.095-2.567 2.53 0 1.433 1.022 2.537 2.567 2.537 1.54 0 2.565-1.104 2.565-2.537 0-1.435-1.025-2.53-2.565-2.53zm0 .563c1.116 0 1.45.939 1.45 1.967 0 1.029-.334 1.97-1.45 1.97-1.122 0-1.454-.941-1.454-1.97 0-1.028.332-1.967 1.454-1.967zm-4.345-.028c-.103-.093-.544-.535-1.414-.535-1.394 0-2.269 1.076-2.269 2.53 0 1.466.89 2.537 2.269 2.537.886 0 1.367-.411 1.477-.513l.264.364h.483v-1.655c0-.281.102-.357.378-.357h.13v-.534h-2.175v.534h.322c.234 0 .376.106.376.338v.28c0 .545-.331.926-1.052.926-.904 0-1.356-.823-1.356-1.92 0-1.08.452-1.908 1.328-1.908.912 0 1.222.86 1.327 1.152h.584v-1.63h-.497l-.175.39zm-3.919 3.262v.13c0 .823-.387 1.14-.975 1.14-.688 0-.92-.336-.92-.986v-.248c0-.82-.345-1.152-1.134-1.152h-.373v1.443c0 .191.086.257.292.257h.518v.537H9.636v-.537h.523c.144 0 .198-.035.198-.12a.646.646 0 0 0-.042-.196c-.026-.064-.247-.679-.247-.679h-1.68l-.243.662a.618.618 0 0 0-.042.199c0 .101.084.134.224.134h.5v.537H6.608v-.537c.376 0 .614-.054.747-.387l1.503-3.85h.903l1.54 3.85c.129.338.371.387.747.387h.191c.203 0 .294-.066.294-.257V17.37c0-.192-.072-.26-.294-.26h-.494v-.532h3.094c1.027 0 1.51.491 1.51 1.236 0 .925-.908 1.107-1.332 1.13v.012c.497.038.917.246.917.981v.28c0 .489.102.597.273.597.168 0 .256-.134.256-.454v-.13h.47zm-7.059-.94-.635-1.738h-.02l-.636 1.737h1.291zm5.487-1.445c0-.419-.297-.735-.955-.735h-.875v1.472h.875c.607 0 .955-.276.955-.737z" fill="#FFCC02"/>
        <path d="M10.931 9.674v1.499h.339c.427 0 .62-.21.62-.8v-.092h.497v2.327h-.497v-.1c0-.583-.193-.806-.62-.806h-.339v1.677h1.419c.646 0 .88-.433.957-1.26h.516v1.794h-4.66v-.534h.394c.245 0 .375-.069.375-.502V10.08c0-.312-.14-.406-.469-.406H9.32c-.339 0-.5.08-.619.437l-1.286 3.802h-.978l-.744-2.478h-.014l-.826 2.478h-.99L2.527 9.929c-.058-.196-.158-.255-.429-.255H2v-.532h2.058v.532H3.76c-.157 0-.22.094-.22.189 0 .07.026.16.063.26l.892 2.662h.014l.85-2.504-.12-.34c-.072-.213-.215-.267-.422-.267h-.168v-.532h2.126v.532h-.376c-.145 0-.2.064-.2.158 0 .074.034.175.058.244l.78 2.662h.013l.906-2.6c.028-.086.053-.157.053-.247 0-.113-.053-.217-.303-.217h-.343v-.532h6.46v1.631h-.53c-.108-.69-.168-1.1-1.113-1.1H10.93zm7.741 4.239v-1.795h-.544c-.072.82-.219 1.26-.956 1.26H16.1v-3.373c0-.265.108-.331.42-.331h.4v-.532h-2.603v.532h.411c.285 0 .38.094.38.312v3.073c0 .251-.135.32-.336.32h-.455v.534h4.355zm4.833 0v-1.795h-.546c-.072.82-.224 1.26-.952 1.26h-1.074v-3.373c0-.265.108-.331.42-.331h.397v-.532h-2.604v.532h.413c.287 0 .383.094.383.312v3.073c0 .251-.138.32-.336.32h-.46v.534h4.36zm3.585-4.412C27.046 9.456 26.61 9 25.764 9c-.889 0-1.787.456-1.787 1.435 0 .887.697 1.291 1.5 1.466.266.057.425.087.668.14.602.13 1.003.314 1.003.737 0 .322-.336.667-1.001.667-.929 0-1.48-.525-1.594-1.327h-.546v1.795h.483l.156-.428c.115.102.568.57 1.429.57 1.097 0 1.925-.494 1.925-1.47 0-.946-.772-1.353-1.715-1.545-.168-.042-.322-.068-.495-.108-.586-.128-.962-.275-.962-.7 0-.369.386-.622.964-.622.87 0 1.207.56 1.387 1.163h.53V9.142h-.383l-.236.36zM5.475 21.351v-.537H5.12c-.329 0-.45-.099-.45-.368v-1.3h.291c.442 0 .633.193.633.699v.158h.495v-2.196h-.495v.095c0 .37-.133.711-.59.711H4.67V17.11h.926c1.043 0 1.153.531 1.223 1.097h.509v-1.63H2.87v.533h.472c.212 0 .331.096.331.269v3.083c0 .201-.107.352-.36.352H2.87v.537h2.605zm19.722-4.918c-1.545 0-2.567 1.095-2.567 2.53 0 1.433 1.022 2.537 2.567 2.537 1.54 0 2.565-1.104 2.565-2.537 0-1.435-1.025-2.53-2.565-2.53zm0 .563c1.116 0 1.45.939 1.45 1.967 0 1.029-.334 1.97-1.45 1.97-1.122 0-1.454-.941-1.454-1.97 0-1.028.332-1.967 1.454-1.967zm-4.345-.028c-.103-.093-.544-.535-1.414-.535-1.394 0-2.269 1.076-2.269 2.53 0 1.466.89 2.537 2.269 2.537.886 0 1.367-.411 1.477-.513l.264.364h.483v-1.655c0-.281.102-.357.378-.357h.13v-.534h-2.175v.534h.322c.234 0 .376.106.376.338v.28c0 .545-.331.926-1.052.926-.904 0-1.356-.823-1.356-1.92 0-1.08.452-1.908 1.328-1.908.912 0 1.222.86 1.327 1.152h.584v-1.63h-.497l-.175.39zm-3.919 3.262v.13c0 .823-.387 1.14-.975 1.14-.688 0-.92-.336-.92-.986v-.248c0-.82-.345-1.152-1.134-1.152h-.373v1.443c0 .191.086.257.292.257h.518v.537H9.636v-.537h.523c.144 0 .198-.035.198-.12a.646.646 0 0 0-.042-.196c-.026-.064-.247-.679-.247-.679h-1.68l-.243.662a.618.618 0 0 0-.042.199c0 .101.084.134.224.134h.5v.537H6.608v-.537c.376 0 .614-.054.747-.387l1.503-3.85h.903l1.54 3.85c.129.338.371.387.747.387h.191c.203 0 .294-.066.294-.257V17.37c0-.192-.072-.26-.294-.26h-.494v-.532h3.094c1.027 0 1.51.491 1.51 1.236 0 .925-.908 1.107-1.332 1.13v.012c.497.038.917.246.917.981v.28c0 .489.102.597.273.597.168 0 .256-.134.256-.454v-.13h.47zm-7.059-.94-.635-1.738h-.02l-.636 1.737h1.291zm5.487-1.445c0-.419-.297-.735-.955-.735h-.875v1.472h.875c.607 0 .955-.276.955-.737z" fill="#FFCC02"/>
    </g>
</svg>
