<svg width="61" height="61" viewBox="0 0 61 61" fill="none" xmlns="http://www.w3.org/2000/svg">
<path fill-rule="evenodd" clip-rule="evenodd" d="M49.0454 31.2192C49.0683 31.2445 49.0913 31.2698 49.1142 31.2951C49.8093 32.0626 50.995 32.1213 51.7626 31.4262C52.5301 30.7311 52.5888 29.5453 51.8937 28.7778C50.0091 26.6969 47.8716 24.3851 45.712 22.0739V14.2027C45.712 13.1672 44.8726 12.3277 43.837 12.3277C42.8015 12.3277 41.962 13.1672 41.962 14.2027V18.0824C38.5643 14.4834 35.4589 11.237 33.6137 9.31471C31.9041 7.53357 29.0718 7.5723 27.3955 9.35332L9.13854 28.7514C8.42882 29.5055 8.46478 30.6921 9.21885 31.4018C9.97293 32.1115 11.1596 32.0756 11.8693 31.3215L11.962 31.2229V48.4456C11.962 50.82 13.8869 52.7448 16.2613 52.7448H18.5039C19.9537 52.7448 21.1289 51.5695 21.1289 50.1198V37.4607C21.1289 37.1574 21.3748 36.9115 21.6781 36.9115H28.0797C28.383 36.9115 28.6289 37.1574 28.6289 37.4607V50.1198C28.6289 51.5695 29.8042 52.7448 31.2539 52.7448H44.7461C47.1205 52.7448 49.0454 50.82 49.0454 48.4456V31.2192ZM30.9083 11.9115C30.7006 11.6951 30.3477 11.6882 30.1263 11.9234L15.6918 27.2601C15.7051 27.3503 15.712 27.4426 15.712 27.5365V48.4456C15.712 48.7489 15.9579 48.9948 16.2613 48.9948H17.3789V37.4607C17.3789 35.0863 19.3037 33.1615 21.6781 33.1615H28.0797C30.4541 33.1615 32.3789 35.0863 32.3789 37.4607V48.9948H44.7461C45.0495 48.9948 45.2954 48.7489 45.2954 48.4456V27.5365C45.2954 27.4109 45.3077 27.2882 45.3312 27.1696C39.9451 21.3542 33.8443 14.9702 30.9083 11.9115Z" fill="#08C177"/>
<path d="M36.9692 27.6735C35.5195 27.6735 34.3442 28.8487 34.3442 30.2985V33.5657C34.3442 35.0154 35.5195 36.1907 36.9692 36.1907H40.2364C41.6862 36.1907 42.8614 35.0154 42.8614 33.5657V30.2985C42.8614 28.8487 41.6862 27.6735 40.2364 27.6735H36.9692Z" fill="#08C177"/>
</svg>