
<svg width="63" height="64" viewBox="0 0 63 64" fill="none" xmlns="http://www.w3.org/2000/svg">
<path fill-rule="evenodd" clip-rule="evenodd" d="M21.8692 25.4345C21.8692 20.1143 26.182 15.8015 31.5022 15.8015C36.8223 15.8015 41.1352 20.1143 41.1352 25.4345C41.1352 30.7546 36.8223 35.0675 31.5022 35.0675C26.182 35.0675 21.8692 30.7546 21.8692 25.4345ZM31.5022 19.0815C27.9935 19.0815 25.1492 21.9258 25.1492 25.4345C25.1492 28.9431 27.9935 31.7875 31.5022 31.7875C35.0108 31.7875 37.8551 28.9431 37.8551 25.4345C37.8551 21.9258 35.0108 19.0815 31.5022 19.0815Z" fill="#08C177"/>
<path fill-rule="evenodd" clip-rule="evenodd" d="M29.8658 5.88527C30.7926 5.03954 32.2112 5.03955 33.138 5.88527L36.7752 9.20438L41.6687 8.65708C42.9156 8.51762 44.0633 9.35146 44.316 10.5804L45.3076 15.4035L49.5883 17.8371C50.679 18.4572 51.1174 19.8064 50.5994 20.9491L48.5667 25.434L50.5994 29.9189C51.1174 31.0617 50.679 32.4108 49.5883 33.0309L45.3076 35.4645L44.316 40.2876C44.0741 41.4639 43.0123 42.2783 41.8283 42.2236V54.2556C41.8283 56.2743 39.474 57.377 37.9232 56.0847L31.5015 50.7332L25.0797 56.0847C23.529 57.377 21.1746 56.2743 21.1746 54.2556V42.2236C19.991 42.2779 18.9296 41.4636 18.6878 40.2876L17.6961 35.4645L13.4155 33.0309C12.3248 32.4108 11.8864 31.0617 12.4044 29.9189L14.437 25.434L12.4044 20.9491C11.8864 19.8064 12.3248 18.4572 13.4155 17.8371L17.6961 15.4035L18.6878 10.5804C18.9405 9.35146 20.0882 8.51762 21.3351 8.65708L26.2286 9.20438L29.8658 5.88527ZM24.4546 41.862V52.336L29.9772 47.7338C30.8602 46.998 32.1427 46.998 33.0257 47.7338L38.5483 52.336V41.862L36.7752 41.6636L33.138 44.9828C32.2112 45.8285 30.7926 45.8285 29.8658 44.9828L26.2286 41.6636L24.4546 41.862ZM31.5019 8.83269L28.154 11.8878C27.6375 12.359 26.9429 12.5847 26.2481 12.507L21.7439 12.0033L20.8311 16.4427C20.6903 17.1276 20.261 17.7184 19.6532 18.0639L15.7131 20.3039L17.5841 24.432C17.8727 25.0688 17.8727 25.7992 17.5841 26.436L15.7131 30.5641L19.6532 32.8041C20.261 33.1496 20.6903 33.7405 20.8311 34.4253L21.7439 38.8648L26.2481 38.361C26.9429 38.2833 27.6375 38.509 28.154 38.9803L31.5019 42.0353L34.8498 38.9803C35.3662 38.509 36.0608 38.2833 36.7557 38.361L41.2599 38.8648L42.1727 34.4253C42.3135 33.7405 42.7428 33.1496 43.3506 32.8041L47.2907 30.5641L45.4197 26.436C45.1311 25.7992 45.1311 25.0688 45.4197 24.432L47.2907 20.3039L43.3506 18.0639C42.7428 17.7184 42.3135 17.1276 42.1727 16.4427L41.2599 12.0033L36.7557 12.507C36.0608 12.5847 35.3662 12.359 34.8498 11.8878L31.5019 8.83269Z" fill="#08C177"/>
</svg>